/* XPM */
static char * bottom_right_inactive_xpm[] = {
"16 16 3 1",
" 	c None",
".	c #CECECE",
"+	c #B8B8B8",
"...............+",
"...............+",
"...............+",
"...............+",
"...............+",
"...............+",
"...............+",
"...............+",
"...............+",
"...............+",
"...............+",
"...............+",
"...............+",
"...............+",
"...............+",
"++++++++++++++++"};
