/* XPM */
static char * close_active_xpm[] = {
"45 29 14 1",
" 	c None",
".	c #B7D1DD",
"+	c #B6D1DD",
"@	c #4A4A4A",
"#	c #94B1BE",
"$	c #434343",
"%	c #3D3D3D",
"&	c #363636",
"*	c #303030",
"=	c #2A2A2A",
"-	c #232323",
";	c #1D1D1D",
">	c #161616",
",	c #131313",
".++++++++++++++++++++++++++++++++++++++++++++",
"+++++++++++++++++++++++++++++++++++++++++++++",
"+++++++++++++++++++++++++++++++++++++++++++++",
"+++++++++++++++++++++++++++++++++++++++++++++",
"+++++++++++++++++++++++++++++++++++++++++++++",
"+++++++++++++++++++++++++++++++++++++++++++++",
"+++++++++++++++++++++++++++++++++++++++++++++",
"+++++++++++++++++++++++++++++++++++++++++++++",
"+++++++++++++++++++++++++++++++++++++++++++++",
"+++++++++++++++++@#++++++#@++++++++++++++++++",
"+++++++++++++++++#$#++++#$#++++++++++++++++++",
"++++++++++++++++++#%#++#%#+++++++++++++++++++",
"+++++++++++++++++++#&##&#++++++++++++++++++++",
"++++++++++++++++++++#**#+++++++++++++++++++++",
"++++++++++++++++++++#==#+++++++++++++++++++++",
"+++++++++++++++++++#-##-#++++++++++++++++++++",
"++++++++++++++++++#;#++#;#+++++++++++++++++++",
"+++++++++++++++++#>#++++#>#++++++++++++++++++",
"+++++++++++++++++,#++++++#,++++++++++++++++++",
"+++++++++++++++++++++++++++++++++++++++++++++",
"+++++++++++++++++++++++++++++++++++++++++++++",
"+++++++++++++++++++++++++++++++++++++++++++++",
"+++++++++++++++++++++++++++++++++++++++++++++",
"+++++++++++++++++++++++++++++++++++++++++++++",
"+++++++++++++++++++++++++++++++++++++++++++++",
"+++++++++++++++++++++++++++++++++++++++++++++",
"+++++++++++++++++++++++++++++++++++++++++++++",
"+++++++++++++++++++++++++++++++++++++++++++++",
"+++++++++++++++++++++++++++++++++++++++++++++"};
