/* XPM */
static char * close_prelight_xpm[] = {
"45 29 17 1",
" 	c None",
".	c #E81223",
"+	c #E81324",
"@	c #E71324",
"#	c #E81224",
"$	c #E81123",
"%	c #E71424",
"&	c #E71425",
"*	c #E71525",
"=	c #E51827",
"-	c #E51A28",
";	c #E31D2A",
">	c #E31E2A",
",	c #E41C29",
"'	c #E61726",
")	c #FFFFFF",
"!	c #F16B76",
".+@#$$.%@@@&&***@@*=-;>,'@@*&%@+@#$$...@@@##*",
"$$$$$$$$$$$$$$$$$$$$$$$$$$$$$$$$$$$$$$$$$$$$$",
"$$$$$$$$$$$$$$$$$$$$$$$$$$$$$$$$$$$$$$$$$$$$$",
"$$$$$$$$$$$$$$$$$$$$$$$$$$$$$$$$$$$$$$$$$$$$$",
"$$$$$$$$$$$$$$$$$$$$$$$$$$$$$$$$$$$$$$$$$$$$$",
"$$$$$$$$$$$$$$$$$$$$$$$$$$$$$$$$$$$$$$$$$$$$$",
"$$$$$$$$$$$$$$$$$$$$$$$$$$$$$$$$$$$$$$$$$$$$$",
"$$$$$$$$$$$$$$$$$$$$$$$$$$$$$$$$$$$$$$$$$$$$$",
"$$$$$$$$$$$$$$$$$$$$$$$$$$$$$$$$$$$$$$$$$$$$$",
"$$$$$$$$$$$$$$$$$)!$$$$$$!)$$$$$$$$$$$$$$$$$$",
"$$$$$$$$$$$$$$$$$!)!$$$$!)!$$$$$$$$$$$$$$$$$$",
"$$$$$$$$$$$$$$$$$$!)!$$!)!$$$$$$$$$$$$$$$$$$$",
"$$$$$$$$$$$$$$$$$$$!)!!)!$$$$$$$$$$$$$$$$$$$$",
"$$$$$$$$$$$$$$$$$$$$!))!$$$$$$$$$$$$$$$$$$$$$",
"$$$$$$$$$$$$$$$$$$$$!))!$$$$$$$$$$$$$$$$$$$$$",
"$$$$$$$$$$$$$$$$$$$!)!!)!$$$$$$$$$$$$$$$$$$$$",
"$$$$$$$$$$$$$$$$$$!)!$$!)!$$$$$$$$$$$$$$$$$$$",
"$$$$$$$$$$$$$$$$$!)!$$$$!)!$$$$$$$$$$$$$$$$$$",
"$$$$$$$$$$$$$$$$$)!$$$$$$!)$$$$$$$$$$$$$$$$$$",
"$$$$$$$$$$$$$$$$$$$$$$$$$$$$$$$$$$$$$$$$$$$$$",
"$$$$$$$$$$$$$$$$$$$$$$$$$$$$$$$$$$$$$$$$$$$$$",
"$$$$$$$$$$$$$$$$$$$$$$$$$$$$$$$$$$$$$$$$$$$$$",
"$$$$$$$$$$$$$$$$$$$$$$$$$$$$$$$$$$$$$$$$$$$$$",
"$$$$$$$$$$$$$$$$$$$$$$$$$$$$$$$$$$$$$$$$$$$$$",
"$$$$$$$$$$$$$$$$$$$$$$$$$$$$$$$$$$$$$$$$$$$$$",
"$$$$$$$$$$$$$$$$$$$$$$$$$$$$$$$$$$$$$$$$$$$$$",
"$$$$$$$$$$$$$$$$$$$$$$$$$$$$$$$$$$$$$$$$$$$$$",
"$$$$$$$$$$$$$$$$$$$$$$$$$$$$$$$$$$$$$$$$$$$$$",
" $$$$$$$$$$$$$$$$$$$$$$$$$$$$$$$$$$$$$$$$$$$ "};
