/* XPM */
static char * hide_pressed_xpm[] = {
"45 29 7 1",
" 	c None",
".	c #B8CBD4",
"+	c #B2CBD7",
"@	c #B1CBD7",
"#	c #B7CBD5",
"$	c #B8CBD5",
"%	c #000000",
".+@@@@@@@@@@@@@@@@@@@@@@@@@@@@@@@@@@@@@@@@@@#",
"$@@@@@@@@@@@@@@@@@@@@@@@@@@@@@@@@@@@@@@@@@@@#",
"$@@@@@@@@@@@@@@@@@@@@@@@@@@@@@@@@@@@@@@@@@@@#",
"$@@@@@@@@@@@@@@@@@@@@@@@@@@@@@@@@@@@@@@@@@@@#",
"$@@@@@@@@@@@@@@@@@@@@@@@@@@@@@@@@@@@@@@@@@@@#",
"$@@@@@@@@@@@@@@@@@@@@@@@@@@@@@@@@@@@@@@@@@@@#",
"$@@@@@@@@@@@@@@@@@@@@@@@@@@@@@@@@@@@@@@@@@@@#",
"$@@@@@@@@@@@@@@@@@@@@@@@@@@@@@@@@@@@@@@@@@@@#",
"$@@@@@@@@@@@@@@@@@@@@@@@@@@@@@@@@@@@@@@@@@@@#",
"$@@@@@@@@@@@@@@@@@@@@@@@@@@@@@@@@@@@@@@@@@@@#",
"$@@@@@@@@@@@@@@@@@@@@@@@@@@@@@@@@@@@@@@@@@@@#",
"$@@@@@@@@@@@@@@@@@@@@@@@@@@@@@@@@@@@@@@@@@@@#",
"$@@@@@@@@@@@@@@@@@@@@@@@@@@@@@@@@@@@@@@@@@@@#",
"$@@@@@@@@@@@@@@@@@@@@@@@@@@@@@@@@@@@@@@@@@@@#",
"$@@@@@@@@@@@@@@@@%%%%%%%%%%@@@@@@@@@@@@@@@@@#",
"$@@@@@@@@@@@@@@@@@@@@@@@@@@@@@@@@@@@@@@@@@@@#",
"$@@@@@@@@@@@@@@@@@@@@@@@@@@@@@@@@@@@@@@@@@@@#",
"$@@@@@@@@@@@@@@@@@@@@@@@@@@@@@@@@@@@@@@@@@@@#",
"$@@@@@@@@@@@@@@@@@@@@@@@@@@@@@@@@@@@@@@@@@@@#",
"$@@@@@@@@@@@@@@@@@@@@@@@@@@@@@@@@@@@@@@@@@@@#",
"$@@@@@@@@@@@@@@@@@@@@@@@@@@@@@@@@@@@@@@@@@@@#",
"$@@@@@@@@@@@@@@@@@@@@@@@@@@@@@@@@@@@@@@@@@@@#",
"$@@@@@@@@@@@@@@@@@@@@@@@@@@@@@@@@@@@@@@@@@@@#",
"$@@@@@@@@@@@@@@@@@@@@@@@@@@@@@@@@@@@@@@@@@@@#",
"$@@@@@@@@@@@@@@@@@@@@@@@@@@@@@@@@@@@@@@@@@@@#",
"$@@@@@@@@@@@@@@@@@@@@@@@@@@@@@@@@@@@@@@@@@@@#",
"$@@@@@@@@@@@@@@@@@@@@@@@@@@@@@@@@@@@@@@@@@@@#",
"$@@@@@@@@@@@@@@@@@@@@@@@@@@@@@@@@@@@@@@@@@@@#",
"$@@@@@@@@@@@@@@@@@@@@@@@@@@@@@@@@@@@@@@@@@@@#"};
