/* XPM */
static char * left_inactive_xpm[] = {
"10 24 3 1",
" 	c None",
".	c #B8B8B8",
"+	c #CECECE",
".+++++++++",
".+++++++++",
".+++++++++",
".+++++++++",
".+++++++++",
".+++++++++",
".+++++++++",
".+++++++++",
".+++++++++",
".+++++++++",
".+++++++++",
".+++++++++",
".+++++++++",
".+++++++++",
".+++++++++",
".+++++++++",
".+++++++++",
".+++++++++",
".+++++++++",
".+++++++++",
".+++++++++",
".+++++++++",
".+++++++++",
".+++++++++"};
