/* XPM */
static char * menu_active_xpm[] = {
"22 29 3 1",
" 	c None",
".	c #B8CEE4",
"+	c #B6D1DD",
".+++++++++++++++++++++",
".+++++++++++++++++++++",
".+++++++++++++++++++++",
".+++++++++++++++++++++",
".+++++++++++++++++++++",
".+++++++++++++++++++++",
".+++++++++++++++++++++",
".+++++++++++++++++++++",
".+++++++++++++++++++++",
".+++++++++++++++++++++",
".+++++++++++++++++++++",
".+++++++++++++++++++++",
".+++++++++++++++++++++",
".+++++++++++++++++++++",
".+++++++++++++++++++++",
".+++++++++++++++++++++",
".+++++++++++++++++++++",
".+++++++++++++++++++++",
".+++++++++++++++++++++",
".+++++++++++++++++++++",
".+++++++++++++++++++++",
".+++++++++++++++++++++",
".+++++++++++++++++++++",
".+++++++++++++++++++++",
".+++++++++++++++++++++",
".+++++++++++++++++++++",
".+++++++++++++++++++++",
".+++++++++++++++++++++",
".+++++++++++++++++++++"};
