/* XPM */
static char * shade_toggled_active_xpm[] = {
"45 29 23 1",
" 	c None",
".	c #B6D1DD",
"+	c #BDD3DD",
"@	c #B7D1DD",
"#	c #B8D2DD",
"$	c #C0D4DD",
"%	c #BFD4DD",
"&	c #BFD3DD",
"*	c #BED3DD",
"=	c #BFD3DC",
"-	c #B2C5CE",
";	c #BED3DC",
">	c #2A2A2A",
",	c #BED2DC",
"'	c #BDD2DC",
")	c #BED2DB",
"!	c #BDD2DB",
"~	c #BDD1DB",
"{	c #BCD1DB",
"]	c #BDD1DA",
"^	c #BCD1DA",
"/	c #BCD0D9",
"(	c #BBD0DA",
".............................................",
".............................................",
".............................................",
".............................................",
".............................................",
".............................................",
"+@..........................................#",
"$@..........................................%",
"$@..........................................&",
"&@..........................................*",
"=@...............-.......-..................;",
"=@..............->-.....->-.................,",
",@...............->-...->-..................'",
")@................->-.->-...................'",
")@.................->->-....................!",
"~@..................->-.....................{",
"~....................-......................{",
"]...........................................{",
"^...........................................^",
"/...........................................(",
"/...........................................(",
"/...........................................(",
"/...........................................(",
"/...........................................(",
"/...........................................(",
"/...........................................(",
"/...........................................(",
"/...........................................(",
"/...........................................("};
