/* XPM */
static char * shade_active_xpm[] = {
"45 29 27 1",
" 	c None",
".	c #B6D1DD",
"+	c #B7D1DD",
"@	c #B8D2DD",
"#	c #BCD3DD",
"$	c #BFD4DD",
"%	c #C8D6DD",
"&	c #BFD3DD",
"*	c #C7D6DD",
"=	c #BED3DD",
"-	c #C7D5DC",
";	c #94B1BE",
">	c #BED3DC",
",	c #C6D5DC",
"'	c #2A2A2A",
")	c #BED2DC",
"!	c #C5D4DB",
"~	c #BDD2DC",
"{	c #C4D3DA",
"]	c #BDD2DB",
"^	c #BCD1DB",
"/	c #C3D2D9",
"(	c #C2D1D8",
"_	c #BCD1DA",
":	c #C1D1D8",
"<	c #BBD0DA",
"[	c #C0CFD6",
".............................................",
".............................................",
".............................................",
".............................................",
".............................................",
".............................................",
"+..........................................@#",
"+..........................................$%",
"+..........................................&*",
"+..........................................=-",
"+.....................;....................>,",
"+....................;';...................)!",
"+...................;';';..................~!",
"+..................;';.;';.................~{",
"+.................;';...;';................]{",
"+................;';.....;';...............^/",
"..................;.......;................^(",
"...........................................^(",
"..........................................._:",
"...........................................<[",
"...........................................<[",
"...........................................<[",
"...........................................<[",
"...........................................<[",
"...........................................<[",
"...........................................<[",
"...........................................<[",
"...........................................<[",
"...........................................<["};
