/* XPM */
static char * stick_toggled_prelight_xpm[] = {
"45 29 4 1",
" 	c None",
".	c #D2E2EA",
"+	c #D0DEE5",
"@	c #070707",
".............................................",
".............................................",
".............................................",
".............................................",
".............................................",
".............................................",
".............................................",
".............................................",
".............................................",
"...................++@@@++...................",
"..................+@@@@@@@+..................",
".................+@@@@@@@@@+.................",
".................+@@@@@@@@@+.................",
".................@@@@@@@@@@@.................",
".................@@@@@@@@@@@.................",
".................@@@@@@@@@@@.................",
".................+@@@@@@@@@+.................",
".................+@@@@@@@@@+.................",
"..................+@@@@@@@+..................",
"...................++@@@++...................",
".............................................",
".............................................",
".............................................",
".............................................",
".............................................",
".............................................",
".............................................",
".............................................",
"............................................."};
