/* XPM */
static char * stick_toggled_active_xpm[] = {
"45 29 26 1",
" 	c None",
".	c #B6D1DD",
"+	c #BBD3DD",
"@	c #B7D1DD",
"#	c #BBD3DE",
"$	c #C1D5DE",
"%	c #BFD4DE",
"&	c #C1D4DD",
"*	c #BFD4DD",
"=	c #C0D4DD",
"-	c #BFD3DD",
";	c #B2B2B2",
">	c #2A2A2A",
",	c #BED3DD",
"'	c #BFD3DC",
")	c #BED3DC",
"!	c #BED2DC",
"~	c #BDD2DC",
"{	c #BED2DB",
"]	c #BDD2DB",
"^	c #BDD1DB",
"/	c #BCD1DB",
"(	c #BDD1DA",
"_	c #BCD1DA",
":	c #BCD0D9",
"<	c #BBD0DA",
".............................................",
".............................................",
".............................................",
".............................................",
"+@..........................................#",
"$@..........................................%",
"&@..........................................*",
"=@..........................................*",
"=@..........................................-",
"-@.................;;>>>;;..................,",
"'@................;>>>>>>>;.................)",
"'@...............;>>>>>>>>>;................!",
"!@...............;>>>>>>>>>;................~",
"{@...............>>>>>>>>>>>................~",
"{@...............>>>>>>>>>>>................]",
"^@...............>>>>>>>>>>>................/",
"^................;>>>>>>>>>;................/",
"(................;>>>>>>>>>;................/",
"_.................;>>>>>>>;................._",
":..................;;>>>;;..................<",
":...........................................<",
":...........................................<",
":...........................................<",
":...........................................<",
":...........................................<",
":...........................................<",
":...........................................<",
":...........................................<",
":...........................................<"};
