/* XPM */
static char * stick_prelight_xpm[] = {
"45 29 4 1",
" 	c None",
".	c #D2E2EA",
"+	c #B2C5CE",
"@	c #070707",
".............................................",
".............................................",
".............................................",
".............................................",
".............................................",
".............................................",
".............................................",
".............................................",
".............................................",
"...................++@@@++...................",
"..................+@@+++@@+..................",
".................+@++...++@+.................",
".................+@+.....+@+.................",
".................@+.......+@.................",
".................@+.......+@.................",
".................@+.......+@.................",
".................+@+.....+@+.................",
".................+@++...++@+.................",
"..................+@@+++@@+..................",
"...................++@@@++...................",
".............................................",
".............................................",
".............................................",
".............................................",
".............................................",
".............................................",
".............................................",
".............................................",
"............................................."};
