/* XPM */
static char * title_4_inactive_xpm[] = {
"4 29 3 1",
" 	c None",
".	c #B8B8B8",
"+	c #CECECE",
"....",
"++++",
"++++",
"++++",
"++++",
"++++",
"++++",
"++++",
"++++",
"++++",
"++++",
"++++",
"++++",
"++++",
"++++",
"++++",
"++++",
"++++",
"++++",
"++++",
"++++",
"++++",
"++++",
"++++",
"++++",
"++++",
"++++",
"++++",
"++++"};
