/* XPM */
static char * top_left_inactive_xpm[] = {
"8 29 3 1",
" 	c None",
".	c #B8B8B8",
"+	c #CECECE",
"    ....",
"  ..++++",
" .++++++",
" .++++++",
".+++++++",
".+++++++",
".+++++++",
".+++++++",
".+++++++",
".+++++++",
".+++++++",
".+++++++",
".+++++++",
".+++++++",
".+++++++",
".+++++++",
".+++++++",
".+++++++",
".+++++++",
".+++++++",
".+++++++",
".+++++++",
".+++++++",
".+++++++",
".+++++++",
".+++++++",
".+++++++",
".+++++++",
".+++++++"};
