/* XPM */
static char * bottom_right_active_xpm[] = {
"16 16 3 1",
" 	c None",
".	c #CECECE",
"+	c #878787",
"...............+",
"...............+",
"...............+",
"...............+",
"...............+",
"...............+",
"...............+",
"...............+",
"...............+",
"...............+",
"...............+",
"...............+",
"...............+",
"...............+",
"...............+",
"++++++++++++++++"};
