/* XPM */
static char * bottom_left_inactive_xpm[] = {
"16 16 3 1",
" 	c None",
".	c #B8B8B8",
"+	c #CECECE",
".+++++++++++++++",
".+++++++++++++++",
".+++++++++++++++",
".+++++++++++++++",
".+++++++++++++++",
".+++++++++++++++",
".+++++++++++++++",
".+++++++++++++++",
".+++++++++++++++",
".+++++++++++++++",
".+++++++++++++++",
".+++++++++++++++",
".+++++++++++++++",
".+++++++++++++++",
".+++++++++++++++",
"................"};
