/* XPM */
static char * bottom_inactive_xpm[] = {
"24 10 3 1",
" 	c None",
".	c #CECECE",
"+	c #B8B8B8",
"........................",
"........................",
"........................",
"........................",
"........................",
"........................",
"........................",
"........................",
"........................",
"++++++++++++++++++++++++"};
