/* XPM */
static char * right_inactive_xpm[] = {
"10 24 3 1",
" 	c None",
".	c #CECECE",
"+	c #B8B8B8",
".........+",
".........+",
".........+",
".........+",
".........+",
".........+",
".........+",
".........+",
".........+",
".........+",
".........+",
".........+",
".........+",
".........+",
".........+",
".........+",
".........+",
".........+",
".........+",
".........+",
".........+",
".........+",
".........+",
".........+"};
