/* XPM */
static char * right_active_xpm[] = {
"10 24 3 1",
" 	c None",
".	c #CECECE",
"+	c #878787",
".........+",
".........+",
".........+",
".........+",
".........+",
".........+",
".........+",
".........+",
".........+",
".........+",
".........+",
".........+",
".........+",
".........+",
".........+",
".........+",
".........+",
".........+",
".........+",
".........+",
".........+",
".........+",
".........+",
".........+"};
