/* XPM */
static char * shade_toggled_active_xpm[] = {
"45 29 23 1",
" 	c None",
".	c #666666",
"+	c #E5E5E5",
"@	c #E4E4E4",
"#	c #E2E2E2",
"$	c #E1E1E1",
"%	c #E0E0E0",
"&	c #DFDFDF",
"*	c #DDDDDD",
"=	c #DCDCDC",
"-	c #DBDBDB",
";	c #DADADA",
">	c #B2B2B2",
",	c #D8D8D8",
"'	c #2A2A2A",
")	c #D7D7D7",
"!	c #D6D6D6",
"~	c #D5D5D5",
"{	c #D3D3D3",
"]	c #D2D2D2",
"^	c #D1D1D1",
"/	c #D0D0D0",
"(	c #CDCDCD",
".............................................",
"+++++++++++++++++++++++++++++++++++++++++++++",
"@@@@@@@@@@@@@@@@@@@@@@@@@@@@@@@@@@@@@@@@@@@@@",
"#############################################",
"$$$$$$$$$$$$$$$$$$$$$$$$$$$$$$$$$$$$$$$$$$$$$",
"%%%%%%%%%%%%%%%&&&&&&&&&&&&&&%%%%%%%%%%%%%%%%",
"&&&&&&&&&&&&&&&*&&&&&&&&&&&&&&&&&&&&&&&&&&&&&",
"*********************************************",
"=============================================",
"---------------------------------------------",
";;;;;;;;;;;;;;;;;>;;;;;;;>;;;;;;;;;;;;;;;;;;;",
",,,,,,,,,,,,,,,,>'>,,,,,>'>,,,,,,,,,,,,,,,,,,",
")))))))))))))))))>'>)))>'>)))))))))))))))))))",
"!!!!!!!!!!!!!!!!!!>'>!>'>!!!!!!!!!!!!!!!!!!!!",
"~~~~~~~~~~~~~~~~~~~>'>'>~~~~~~~~~~~~~~~~~~~~~",
"{{{{{{{{{{{{{{{{{{{{>'>{{{{{{{{{{{{{{{{{{{{{{",
"]]]]]]]]]]]]]]]]]]]]]>]]]]]]]]]]]]]]]]]]]]]]]",
"^^^^^^^^^^^^^^^^^^^^^^^^^^^^^^^^^^^^^^^^^^^^^",
"/////////////////////////////////////////////",
"(((((((((((((((((((((((((((((((((((((((((((((",
"(((((((((((((((((((((((((((((((((((((((((((((",
"(((((((((((((((((((((((((((((((((((((((((((((",
"(((((((((((((((((((((((((((((((((((((((((((((",
"(((((((((((((((((((((((((((((((((((((((((((((",
"(((((((((((((((((((((((((((((((((((((((((((((",
"(((((((((((((((((((((((((((((((((((((((((((((",
"(((((((((((((((((((((((((((((((((((((((((((((",
"(((((((((((((((((((((((((((((((((((((((((((((",
"((((((((((((((((((((((((((((((((((((((((((((("};
