/* XPM */
static char * title_5_inactive_xpm[] = {
"4 29 3 1",
" 	c None",
".	c #B8B8B8",
"+	c #CECECE",
"....",
"++++",
"++++",
"++++",
"++++",
"++++",
"++++",
"++++",
"++++",
"++++",
"++++",
"++++",
"++++",
"++++",
"++++",
"++++",
"++++",
"++++",
"++++",
"++++",
"++++",
"++++",
"++++",
"++++",
"++++",
"++++",
"++++",
"++++",
"++++"};
