/* XPM */
static char * bottom_active_xpm[] = {
"24 10 3 1",
" 	c None",
".	c #CECECE",
"+	c #878787",
"........................",
"........................",
"........................",
"........................",
"........................",
"........................",
"........................",
"........................",
"........................",
"++++++++++++++++++++++++"};
