/* XPM */
static char * close_inactive_xpm[] = {
"45 29 20 1",
" 	c None",
".	c #B8B8B8",
"+	c #CECECE",
"@	c #A2A2A2",
"#	c #9E9E9E",
"$	c #9B9B9B",
"%	c #CDCDCD",
"&	c #979797",
"*	c #CACACA",
"=	c #949494",
"-	c #C6C6C6",
";	c #919191",
">	c #C1C1C1",
",	c #8D8D8D",
"'	c #C0C0C0",
")	c #8A8A8A",
"!	c #BEBEBE",
"~	c #878787",
"{	c #858585",
"]	c #BDBDBD",
".............................................",
"+++++++++++++++++++++++++++++++++++++++++++++",
"+++++++++++++++++++++++++++++++++++++++++++++",
"+++++++++++++++++++++++++++++++++++++++++++++",
"+++++++++++++++++++++++++++++++++++++++++++++",
"+++++++++++++++++++++++++++++++++++++++++++++",
"+++++++++++++++++++++++++++++++++++++++++++++",
"+++++++++++++++++++++++++++++++++++++++++++++",
"+++++++++++++++++++++++++++++++++++++++++++++",
"+++++++++++++++++@++++++++@++++++++++++++++++",
"++++++++++++++++++#++++++#+++++++++++++++++++",
"+++++++++++++++++++$++++$++++++++++++++++++++",
"+++++++++++++++++++%&%%&%++++++++++++++++++++",
"++++++++++++++++++++*==*+++++++++++++++++++++",
"++++++++++++++++++++-;;-+++++++++++++++++++++",
"+++++++++++++++++++>,>>,>++++++++++++++++++++",
"++++++++++++++++++')'++')'+++++++++++++++++++",
"+++++++++++++++++!~!++++!~!++++++++++++++++++",
"+++++++++++++++++{]++++++]{++++++++++++++++++",
"+++++++++++++++++++++++++++++++++++++++++++++",
"+++++++++++++++++++++++++++++++++++++++++++++",
"+++++++++++++++++++++++++++++++++++++++++++++",
"+++++++++++++++++++++++++++++++++++++++++++++",
"+++++++++++++++++++++++++++++++++++++++++++++",
"+++++++++++++++++++++++++++++++++++++++++++++",
"+++++++++++++++++++++++++++++++++++++++++++++",
"+++++++++++++++++++++++++++++++++++++++++++++",
"+++++++++++++++++++++++++++++++++++++++++++++",
"+++++++++++++++++++++++++++++++++++++++++++++"};
