/* XPM */
static char * close_active_xpm[] = {
"45 29 41 1",
" 	c None",
".	c #878787",
"+	c #E5E5E5",
"@	c #E1E1E1",
"#	c #E4E4E4",
"$	c #E2E2E2",
"%	c #E0E0E0",
"&	c #DFDFDF",
"*	c #DDDDDD",
"=	c #DCDCDC",
"-	c #DBDBDB",
";	c #4A4A4A",
">	c #BEBEBE",
",	c #DADADA",
"'	c #BBBBBB",
")	c #434343",
"!	c #D8D8D8",
"~	c #B9B9B9",
"{	c #3D3D3D",
"]	c #D7D7D7",
"^	c #B7B7B7",
"/	c #363636",
"(	c #D6D6D6",
"_	c #B5B5B5",
":	c #303030",
"<	c #D5D5D5",
"[	c #B2B2B2",
"}	c #2A2A2A",
"|	c #D3D3D3",
"1	c #B0B0B0",
"2	c #232323",
"3	c #D2D2D2",
"4	c #AEAEAE",
"5	c #1D1D1D",
"6	c #D1D1D1",
"7	c #ABABAB",
"8	c #161616",
"9	c #D0D0D0",
"0	c #131313",
"a	c #AAAAAA",
"b	c #CDCDCD",
".............................................",
"+++++++++++++++++++++++++++++++++++++++++@@@@",
"########################################@###@",
"$$$$$$$$$$$$$$$$$$$$$$$$$$$$$$$$$$$$$$$$@@$@@",
"@@@@@@@@@@@@@@@@@@@@@@@@@@@@@@@@@@@@@@@@@@@@@",
"%%%%%%%%%%%%%%%%%%%%%%%%%%%%%%%%%%%%%%%%%%%%%",
"&&&&&&&&&&&&&&&&&&&&&&&&&&&&&&&&&&&&&&&&&&&&&",
"*********************************************",
"=============================================",
"-----------------;>------>;------------------",
",,,,,,,,,,,,,,,,,')',,,,')',,,,,,,,,,,,,,,,,,",
"!!!!!!!!!!!!!!!!!!~{~!!~{~!!!!!!!!!!!!!!!!!!!",
"]]]]]]]]]]]]]]]]]]]^/^^/^]]]]]]]]]]]]]]]]]]]]",
"((((((((((((((((((((_::_(((((((((((((((((((((",
"<<<<<<<<<<<<<<<<<<<<[}}[<<<<<<<<<<<<<<<<<<<<<",
"|||||||||||||||||||121121||||||||||||||||||||",
"333333333333333333454334543333333333333333333",
"666666666666666667876666787666666666666666666",
"999999999999999990a999999a0999999999999999999",
"bbbbbbbbbbbbbbbbbbbbbbbbbbbbbbbbbbbbbbbbbbbbb",
"bbbbbbbbbbbbbbbbbbbbbbbbbbbbbbbbbbbbbbbbbbbbb",
"bbbbbbbbbbbbbbbbbbbbbbbbbbbbbbbbbbbbbbbbbbbbb",
"bbbbbbbbbbbbbbbbbbbbbbbbbbbbbbbbbbbbbbbbbbbbb",
"bbbbbbbbbbbbbbbbbbbbbbbbbbbbbbbbbbbbbbbbbbbbb",
"bbbbbbbbbbbbbbbbbbbbbbbbbbbbbbbbbbbbbbbbbbbbb",
"bbbbbbbbbbbbbbbbbbbbbbbbbbbbbbbbbbbbbbbbbbbbb",
"bbbbbbbbbbbbbbbbbbbbbbbbbbbbbbbbbbbbbbbbbbbbb",
"bbbbbbbbbbbbbbbbbbbbbbbbbbbbbbbbbbbbbbbbbbbbb",
"bbbbbbbbbbbbbbbbbbbbbbbbbbbbbbbbbbbbbbbbbbbbb"};
