/* XPM */
static char * title_1_inactive_xpm[] = {
"4 29 12 1",
" 	c None",
".	c #E9344C",
"+	c #EA3046",
"@	c #F21827",
"#	c #EF1F30",
"$	c #D6749D",
"%	c #DD5D7F",
"&	c #E05373",
"*	c #DF5575",
"=	c #C0C0FF",
"-	c #C3B5F1",
";	c #C6AAE3",
".++.",
"@@@@",
"@@@@",
"@@@@",
"@@@@",
"@@@@",
"@@@@",
"@@@@",
"@@@@",
"@@@@",
"@@@@",
"@@@@",
"@@@@",
"@@@@",
"@@@@",
"@@@@",
"@@@@",
"@@@@",
"@@@@",
"@@@@",
"@@@@",
"@@@@",
"@@@@",
"#@@@",
"$%&*",
"=-;;",
"====",
"====",
"===="};
