/* XPM */
static char * left_active_xpm[] = {
"10 24 3 1",
" 	c None",
".	c #878787",
"+	c #CECECE",
".+++++++++",
".+++++++++",
".+++++++++",
".+++++++++",
".+++++++++",
".+++++++++",
".+++++++++",
".+++++++++",
".+++++++++",
".+++++++++",
".+++++++++",
".+++++++++",
".+++++++++",
".+++++++++",
".+++++++++",
".+++++++++",
".+++++++++",
".+++++++++",
".+++++++++",
".+++++++++",
".+++++++++",
".+++++++++",
".+++++++++",
".+++++++++"};
