/* XPM */
static char * maximize_prelight_xpm[] = {
"45 29 4 1",
" 	c None",
".	c #666666",
"+	c #E5E5E5",
"@	c #000000",
".............................................",
"+++++++++++++++++++++++++++++++++++++++++++++",
"+++++++++++++++++++++++++++++++++++++++++++++",
"+++++++++++++++++++++++++++++++++++++++++++++",
"+++++++++++++++++++++++++++++++++++++++++++++",
"+++++++++++++++++++++++++++++++++++++++++++++",
"+++++++++++++++++++++++++++++++++++++++++++++",
"+++++++++++++++++++++++++++++++++++++++++++++",
"+++++++++++++++++++++++++++++++++++++++++++++",
"+++++++++++++++++@@@@@@@@@@++++++++++++++++++",
"+++++++++++++++++@++++++++@++++++++++++++++++",
"+++++++++++++++++@++++++++@++++++++++++++++++",
"+++++++++++++++++@++++++++@++++++++++++++++++",
"+++++++++++++++++@++++++++@++++++++++++++++++",
"+++++++++++++++++@++++++++@++++++++++++++++++",
"+++++++++++++++++@++++++++@++++++++++++++++++",
"+++++++++++++++++@++++++++@++++++++++++++++++",
"+++++++++++++++++@++++++++@++++++++++++++++++",
"+++++++++++++++++@@@@@@@@@@++++++++++++++++++",
"+++++++++++++++++++++++++++++++++++++++++++++",
"+++++++++++++++++++++++++++++++++++++++++++++",
"+++++++++++++++++++++++++++++++++++++++++++++",
"+++++++++++++++++++++++++++++++++++++++++++++",
"+++++++++++++++++++++++++++++++++++++++++++++",
"+++++++++++++++++++++++++++++++++++++++++++++",
"+++++++++++++++++++++++++++++++++++++++++++++",
"+++++++++++++++++++++++++++++++++++++++++++++",
"+++++++++++++++++++++++++++++++++++++++++++++",
" +++++++++++++++++++++++++++++++++++++++++++ "};
