/* XPM */
static char * maximize_inactive_xpm[] = {
"45 29 14 1",
" 	c None",
".	c #B8B8B8",
"+	c #CECECE",
"@	c #A2A2A2",
"#	c #9E9E9E",
"$	c #9B9B9B",
"%	c #979797",
"&	c #949494",
"*	c #919191",
"=	c #8D8D8D",
"-	c #8A8A8A",
";	c #878787",
">	c #858585",
",	c #CDCDCD",
".............................................",
"+++++++++++++++++++++++++++++++++++++++++++++",
"+++++++++++++++++++++++++++++++++++++++++++++",
"+++++++++++++++++++++++++++++++++++++++++++++",
"+++++++++++++++++++++++++++++++++++++++++++++",
"+++++++++++++++++++++++++++++++++++++++++++++",
"+++++++++++++++++++++++++++++++++++++++++++++",
"+++++++++++++++++++++++++++++++++++++++++++++",
"+++++++++++++++++++++++++++++++++++++++++++++",
"+++++++++++++++++@@@@@@@@@@++++++++++++++++++",
"+++++++++++++++++#++++++++#++++++++++++++++++",
"+++++++++++++++++$++++++++$++++++++++++++++++",
"+++++++++++++++++%++++++++%++++++++++++++++++",
"+++++++++++++++++&++++++++&++++++++++++++++++",
"+++++++++++++++++*++++++++*++++++++++++++++++",
"+++++++++++++++++=++++++++=++++++++++++++++++",
"+++++++++++++++++-++++++++-++++++++++++++++++",
"+++++++++++++++++;++++++++;++++++++++++++++++",
"+++++++++++++++++>>>>>>>>>>++++++++++++++++++",
",,,,,,,,,,,,,,,,,,,,,,,,,,,,,,,,,,,,,,,,,,,,,",
",,,,,,,,,,,,,,,,,,,,,,,,,,,,,,,,,,,,,,,,,,,,,",
",,,,,,,,,,,,,,,,,,,,,,,,,,,,,,,,,,,,,,,,,,,,,",
",,,,,,,,,,,,,,,,,,,,,,,,,,,,,,,,,,,,,,,,,,,,,",
",,,,,,,,,,,,,,,,,,,,,,,,,,,,,,,,,,,,,,,,,,,,,",
",,,,,,,,,,,,,,,,,,,,,,,,,,,,,,,,,,,,,,,,,,,,,",
",,,,,,,,,,,,,,,,,,,,,,,,,,,,,,,,,,,,,,,,,,,,,",
",,,,,,,,,,,,,,,,,,,,,,,,,,,,,,,,,,,,,,,,,,,,,",
",,,,,,,,,,,,,,,,,,,,,,,,,,,,,,,,,,,,,,,,,,,,,",
",,,,,,,,,,,,,,,,,,,,,,,,,,,,,,,,,,,,,,,,,,,,,"};
