/* XPM */
static char * maximize_toggled_active_xpm[] = {
"45 29 31 1",
" 	c None",
".	c #666666",
"+	c #E5E5E5",
"@	c #E4E4E4",
"#	c #E2E2E2",
"$	c #E1E1E1",
"%	c #E0E0E0",
"&	c #DFDFDF",
"*	c #DDDDDD",
"=	c #DCDCDC",
"-	c #DBDBDB",
";	c #4A4A4A",
">	c #DADADA",
",	c #434343",
"'	c #D8D8D8",
")	c #3D3D3D",
"!	c #D7D7D7",
"~	c #363636",
"{	c #D6D6D6",
"]	c #303030",
"^	c #D5D5D5",
"/	c #2A2A2A",
"(	c #D3D3D3",
"_	c #232323",
":	c #D2D2D2",
"<	c #1D1D1D",
"[	c #D1D1D1",
"}	c #161616",
"|	c #D0D0D0",
"1	c #131313",
"2	c #CDCDCD",
".............................................",
"+++++++++++++++++++++++++++++++++++++++++++++",
"@@@@@@@@@@@@@@@@@@@@@@@@@@@@@@@@@@@@@@@@@@@@@",
"#############################################",
"$$$$$$$$$$$$$$$$$$$$$$$$$$$$$$$$$$$$$$$$$$$$$",
"%%%%%%%%%%%%%%%%%%%%%%%%%%%%%%%%%%%%%%%%%%%%%",
"&&&&&&&&&&&&&&&&&&&&&&&&&&&&&&&&&&&&&&&&&&&&&",
"*********************************************",
"=============================================",
"-------------------;;;;;;;;------------------",
">>>>>>>>>>>>>>>>>>>,>>>>>>,>>>>>>>>>>>>>>>>>>",
"'''''''''''''''''))))))))')''''''''''''''''''",
"!!!!!!!!!!!!!!!!!~!!!!!!~!~!!!!!!!!!!!!!!!!!!",
"{{{{{{{{{{{{{{{{{]{{{{{{]{]{{{{{{{{{{{{{{{{{{",
"^^^^^^^^^^^^^^^^^/^^^^^^/^/^^^^^^^^^^^^^^^^^^",
"(((((((((((((((((_((((((_(_((((((((((((((((((",
":::::::::::::::::<::::::<<<::::::::::::::::::",
"[[[[[[[[[[[[[[[[[}[[[[[[}[[[[[[[[[[[[[[[[[[[[",
"|||||||||||||||||11111111||||||||||||||||||||",
"222222222222222222222222222222222222222222222",
"222222222222222222222222222222222222222222222",
"222222222222222222222222222222222222222222222",
"222222222222222222222222222222222222222222222",
"222222222222222222222222222222222222222222222",
"222222222222222222222222222222222222222222222",
"222222222222222222222222222222222222222222222",
"222222222222222222222222222222222222222222222",
"222222222222222222222222222222222222222222222",
"222222222222222222222222222222222222222222222"};
