/* XPM */
static char * shade_toggled_pressed_xpm[] = {
"45 29 5 1",
" 	c None",
".	c #878787",
"+	c #CCCCCC",
"@	c #B2B2B2",
"#	c #2A2A2A",
".............................................",
"+++++++++++++++++++++++++++++++++++++++++++++",
"+++++++++++++++++++++++++++++++++++++++++++++",
"+++++++++++++++++++++++++++++++++++++++++++++",
"+++++++++++++++++++++++++++++++++++++++++++++",
"+++++++++++++++++++++++++++++++++++++++++++++",
"+++++++++++++++++++++++++++++++++++++++++++++",
"+++++++++++++++++++++++++++++++++++++++++++++",
"+++++++++++++++++++++++++++++++++++++++++++++",
"+++++++++++++++++++++++++++++++++++++++++++++",
"+++++++++++++++++++++++++++++++++++++++++++++",
"++++++++++++++++++@+++++++@++++++++++++++++++",
"+++++++++++++++++@#@+++++@#@+++++++++++++++++",
"++++++++++++++++++@#@+++@#@++++++++++++++++++",
"+++++++++++++++++++@#@+@#@+++++++++++++++++++",
"++++++++++++++++++++@#@#@++++++++++++++++++++",
"+++++++++++++++++++++@#@+++++++++++++++++++++",
"++++++++++++++++++++++@++++++++++++++++++++++",
"+++++++++++++++++++++++++++++++++++++++++++++",
"+++++++++++++++++++++++++++++++++++++++++++++",
"+++++++++++++++++++++++++++++++++++++++++++++",
"+++++++++++++++++++++++++++++++++++++++++++++",
"+++++++++++++++++++++++++++++++++++++++++++++",
"+++++++++++++++++++++++++++++++++++++++++++++",
"+++++++++++++++++++++++++++++++++++++++++++++",
"+++++++++++++++++++++++++++++++++++++++++++++",
"+++++++++++++++++++++++++++++++++++++++++++++",
"+++++++++++++++++++++++++++++++++++++++++++++",
"+++++++++++++++++++++++++++++++++++++++++++++"};
