/* XPM */
static char * stick_pressed_xpm[] = {
"45 29 6 1",
" 	c None",
".	c #878787",
"+	c #CCCCCC",
"@	c #CBCBCB",
"#	c #B2B2B2",
"$	c #2A2A2A",
".............................................",
"+++++++++++++++++++++++++++++++++++++++++++++",
"+++++++++++++++++++++++++++++++++++++++++++++",
"+++++++++++++++++++++++++++++++++++++++++++++",
"+++++++++++++++++++++++++++++++++++++++++++++",
"+++++++++++++++++++++++++++++++++++++++++++++",
"+++++++++++++++++++++++++++++++++++++++++++++",
"+++++++++++++++++++++++++++++++++++++++++++++",
"+++++++++++++++++++++@@++++++++++++++++++++++",
"+++++++++++++++++++##$$$##+++++++++++++++++++",
"++++++++++++++++++#$$###$$#++++++++++++++++++",
"+++++++++++++++++#$##+++##$#+++++++++++++++++",
"+++++++++++++++++#$#+++++#$#+++++++++++++++++",
"+++++++++++++++++$#+++++++#$+++++++++++++++++",
"+++++++++++++++++$#+++++++#$+++++++++++++++++",
"+++++++++++++++++$#+++++++#$@++++++++++++++++",
"+++++++++++++++++#$#+++++#$#+++++++++++++++++",
"+++++++++++++++++#$##+++##$#+++++++++++++++++",
"++++++++++++++++++#$$###$$#++++++++++++++++++",
"+++++++++++++++++++##$$$##+++++++++++++++++++",
"+++++++++++++++++++++++++++++++++++++++++++++",
"+++++++++++++++++++++++++++++++++++++++++++++",
"+++++++++++++++++++++++++++++++++++++++++++++",
"+++++++++++++++++++++++++++++++++++++++++++++",
"+++++++++++++++++++++++++++++++++++++++++++++",
"+++++++++++++++++++++++++++++++++++++++++++++",
"+++++++++++++++++++++++++++++++++++++++++++++",
"+++++++++++++++++++++++++++++++++++++++++++++",
"+++++++++++++++++++++++++++++++++++++++++++++"};
