/* XPM */
static char * stick_toggled_inactive_xpm[] = {
"45 29 8 1",
" 	c None",
".	c #B8B8B8",
"+	c #CECECE",
"@	c #CDCDCD",
"#	c #BEBEBE",
"$	c #737373",
"%	c #7D7D7D",
"&	c #727272",
".............................................",
"+++++++++++++++++++++++++++++++++++++++++++++",
"+++++++++++++++++++++++++++++++++++++++++++++",
"+++++++++++++++++++++++++++++++++++++++++++++",
"+++++++++++++++++++++++++++++++++++++++++++++",
"+++++++++++++++++++++++++++++++++++++++++++++",
"+++++++++++++++++++++++++++++++++++++++++++++",
"+++++++++++++++++++++++++++++++++++++++++++++",
"+++++++++++++++++++++@@++++++++++++++++++++++",
"+++++++++++++++++++##$$$##+++++++++++++++++++",
"++++++++++++++++++#$$%%%$$#++++++++++++++++++",
"+++++++++++++++++#$%%$$$%%$#+++++++++++++++++",
"+++++++++++++++++#$%$$$$$%$#+++++++++++++++++",
"+++++++++++++++++$%$$$$$$$%$+++++++++++++++++",
"+++++++++++++++++$%$$$$$$$%$+++++++++++++++++",
"+++++++++++++++++$%$$$$$$$%$@++++++++++++++++",
"+++++++++++++++++#$%$$$$$%$#+++++++++++++++++",
"+++++++++++++++++#$%%$$$%%$#+++++++++++++++++",
"++++++++++++++++++#$$%%%$$#++++++++++++++++++",
"@@@@@@@@@@@@@@@@@@@##&&&##@@@@@@@@@@@@@@@@@@@",
"@@@@@@@@@@@@@@@@@@@@@@@@@@@@@@@@@@@@@@@@@@@@@",
"@@@@@@@@@@@@@@@@@@@@@@@@@@@@@@@@@@@@@@@@@@@@@",
"@@@@@@@@@@@@@@@@@@@@@@@@@@@@@@@@@@@@@@@@@@@@@",
"@@@@@@@@@@@@@@@@@@@@@@@@@@@@@@@@@@@@@@@@@@@@@",
"@@@@@@@@@@@@@@@@@@@@@@@@@@@@@@@@@@@@@@@@@@@@@",
"@@@@@@@@@@@@@@@@@@@@@@@@@@@@@@@@@@@@@@@@@@@@@",
"@@@@@@@@@@@@@@@@@@@@@@@@@@@@@@@@@@@@@@@@@@@@@",
"@@@@@@@@@@@@@@@@@@@@@@@@@@@@@@@@@@@@@@@@@@@@@",
"@@@@@@@@@@@@@@@@@@@@@@@@@@@@@@@@@@@@@@@@@@@@@"};
