/* XPM */
static char * title_1_active_xpm[] = {
"4 29 21 1",
" 	c None",
".	c #878787",
"+	c #E5E5E5",
"@	c #E4E4E4",
"#	c #E2E2E2",
"$	c #E1E1E1",
"%	c #E0E0E0",
"&	c #DFDFDF",
"*	c #DDDDDD",
"=	c #DCDCDC",
"-	c #DBDBDB",
";	c #DADADA",
">	c #D8D8D8",
",	c #D7D7D7",
"'	c #D6D6D6",
")	c #D5D5D5",
"!	c #D3D3D3",
"~	c #D2D2D2",
"{	c #D1D1D1",
"]	c #D0D0D0",
"^	c #CDCDCD",
"....",
"++++",
"@@@@",
"####",
"$$$$",
"%%%%",
"&&&&",
"****",
"====",
"----",
";;;;",
">>>>",
",,,,",
"''''",
"))))",
"!!!!",
"~~~~",
"{{{{",
"]]]]",
"^^^^",
"^^^^",
"^^^^",
"^^^^",
"^^^^",
"^^^^",
"^^^^",
"^^^^",
"^^^^",
"^^^^"};
